<svg version="1.2" xmlns="http://www.w3.org/2000/svg" xmlns:xlink="http://www.w3.org/1999/xlink" overflow="visible" preserveAspectRatio="none" viewBox="0 0 23.33333333333323 21.444479166666653" width="23.33333333333323" height="21.444479166666653"><g transform="translate(1, 1)"><g transform="translate(-6.859096624012295e-14, 0) rotate(0)"><path d="M21.26458,19.16224c-0.0949,0.17448 -0.27304,0.28224 -0.46503,0.28224h-20.26579c-0.19199,0 -0.37008,-0.10781 -0.46503,-0.28224c-0.0939,-0.17333 -0.09175,-0.38781 0.00745,-0.55891l1.83247,-3.18c0.84476,-1.46776 1.2917,-3.14776 1.2917,-4.86v-2.78557c0,-4.28776 3.35026,-7.77776 7.46633,-7.77776c4.11608,0 7.46633,3.49 7.46633,7.77776v2.78557c0,1.71224 0.44693,3.39224 1.2917,4.86l1.83247,3.18c0.0992,0.17109 0.1013,0.38552 0.0074,0.55891zM19.85774,18.33333l-1.34819,-2.33891c-0.94396,-1.64 -1.44314,-3.51776 -1.44314,-5.43109v-2.78557c0,-3.67667 -2.87028,-6.66667 -6.39973,-6.66667c-3.52945,0 -6.39973,2.99 -6.39973,6.66667v2.78557c0,1.91333 -0.49918,3.79109 -1.44419,5.43109l-1.34714,2.33891z" style="stroke: rgb(0, 0, 0); stroke-width: 1; stroke-linecap: butt; stroke-linejoin: miter; fill: rgb(0, 0, 0);" vector-effect="non-scaling-stroke"/></g><defs><path id="path-156690929686576" d="M21.26458,19.16224c-0.0949,0.17448 -0.27304,0.28224 -0.46503,0.28224h-20.26579c-0.19199,0 -0.37008,-0.10781 -0.46503,-0.28224c-0.0939,-0.17333 -0.09175,-0.38781 0.00745,-0.55891l1.83247,-3.18c0.84476,-1.46776 1.2917,-3.14776 1.2917,-4.86v-2.78557c0,-4.28776 3.35026,-7.77776 7.46633,-7.77776c4.11608,0 7.46633,3.49 7.46633,7.77776v2.78557c0,1.71224 0.44693,3.39224 1.2917,4.86l1.83247,3.18c0.0992,0.17109 0.1013,0.38552 0.0074,0.55891zM19.85774,18.33333l-1.34819,-2.33891c-0.94396,-1.64 -1.44314,-3.51776 -1.44314,-5.43109v-2.78557c0,-3.67667 -2.87028,-6.66667 -6.39973,-6.66667c-3.52945,0 -6.39973,2.99 -6.39973,6.66667v2.78557c0,1.91333 -0.49918,3.79109 -1.44419,5.43109l-1.34714,2.33891z" vector-effect="non-scaling-stroke"/></defs><g style="transform: rotate(0deg) translate(-1183px, -21px) translate(1183.33px, 21.3333px) rotate(0deg); pointer-events: all;"><defs><path id="path-156690929667845" d="M21.25718024631492 18.60333333333332 C21.25718024631492 18.60333333333332 19.4247080030348 15.423333333333327 19.4247080030348 15.423333333333327 C18.579943848647172 13.955572916666659 18.133012813131607 12.27557291666666 18.133012813131607 10.563333333333327 C18.133012813131607 10.563333333333327 18.133012813131607 7.777760416666663 18.133012813131607 7.777760416666663 C18.133012813131607 3.489999999999999 14.782754973571594 0 10.666679629705506 0 C6.5506042858394204 0 3.2003464462794042 3.489999999999999 3.2003464462794042 7.777760416666663 C3.2003464462794042 7.777760416666663 3.2003464462794042 10.563333333333327 3.2003464462794042 10.563333333333327 C3.2003464462794042 12.27557291666666 2.7534154107638393 13.955572916666659 1.908651256376212 15.423333333333327 C1.908651256376212 15.423333333333327 0.07617901309609232 18.60333333333332 0.07617901309609232 18.60333333333332 C-0.023016777760030575 18.774427083333325 -0.025166686533625943 18.98890624999999 0.06872932920619192 19.16223958333332 C0.16367530039357966 19.33666666666666 0.341767743452808 19.444479166666653 0.5337595967227233 19.444479166666653 C0.5337595967227233 19.444479166666653 20.79954966480983 19.444479166666653 20.79954966480983 19.444479166666653 C20.99154151807975 19.444479166666653 21.169683959017433 19.33671874999999 21.264579932326363 19.16223958333332 C21.358475948066186 18.988854166666655 21.356376037171046 18.774427083333325 21.25718024631492 18.60333333333332 Z" vector-effect="non-scaling-stroke"/></defs><g transform="translate(0, 0)" style="display: none;"><path d="M21.25718024631492 18.60333333333332 C21.25718024631492 18.60333333333332 19.4247080030348 15.423333333333327 19.4247080030348 15.423333333333327 C18.579943848647172 13.955572916666659 18.133012813131607 12.27557291666666 18.133012813131607 10.563333333333327 C18.133012813131607 10.563333333333327 18.133012813131607 7.777760416666663 18.133012813131607 7.777760416666663 C18.133012813131607 3.489999999999999 14.782754973571594 0 10.666679629705506 0 C6.5506042858394204 0 3.2003464462794042 3.489999999999999 3.2003464462794042 7.777760416666663 C3.2003464462794042 7.777760416666663 3.2003464462794042 10.563333333333327 3.2003464462794042 10.563333333333327 C3.2003464462794042 12.27557291666666 2.7534154107638393 13.955572916666659 1.908651256376212 15.423333333333327 C1.908651256376212 15.423333333333327 0.07617901309609232 18.60333333333332 0.07617901309609232 18.60333333333332 C-0.023016777760030575 18.774427083333325 -0.025166686533625943 18.98890624999999 0.06872932920619192 19.16223958333332 C0.16367530039357966 19.33666666666666 0.341767743452808 19.444479166666653 0.5337595967227233 19.444479166666653 C0.5337595967227233 19.444479166666653 20.79954966480983 19.444479166666653 20.79954966480983 19.444479166666653 C20.99154151807975 19.444479166666653 21.169683959017433 19.33671874999999 21.264579932326363 19.16223958333332 C21.358475948066186 18.988854166666655 21.356376037171046 18.774427083333325 21.25718024631492 18.60333333333332 Z" style="stroke-width: 0; stroke-linecap: butt; stroke-linejoin: miter; fill: rgba(0, 0, 0, 0);" vector-effect="non-scaling-stroke"/></g></g><g style="transform: rotate(0deg) translate(-1183px, -21px) translate(1184.81px, 22.4444px) rotate(0deg); pointer-events: all;"><defs><path id="path-156690929667744" d="M0 17.22223958333332 C0 17.22223958333332 1.3471428371105714 14.883333333333319 1.3471428371105714 14.883333333333319 C2.2921527378018904 13.243333333333322 2.79133155630367 11.365572916666656 2.79133155630367 9.452239583333325 C2.79133155630367 9.452239583333325 2.79133155630367 6.666666666666661 2.79133155630367 6.666666666666661 C2.79133155630367 2.9899999999999984 5.661609762688902 0 9.191059998634175 0 C12.720510234579448 0 15.59078844096468 2.9899999999999984 15.59078844096468 6.666666666666661 C15.59078844096468 6.666666666666661 15.59078844096468 9.452239583333325 15.59078844096468 9.452239583333325 C15.59078844096468 11.365572916666656 16.089967259466455 13.243333333333322 17.033927204710206 14.883333333333319 C17.033927204710206 14.883333333333319 18.382119997268347 17.22223958333332 18.382119997268347 17.22223958333332 C18.382119997268347 17.22223958333332 0 17.22223958333332 0 17.22223958333332 Z" vector-effect="non-scaling-stroke"/></defs><g transform="translate(0, 0)" style="display: none;"><path d="M0 17.22223958333332 C0 17.22223958333332 1.3471428371105714 14.883333333333319 1.3471428371105714 14.883333333333319 C2.2921527378018904 13.243333333333322 2.79133155630367 11.365572916666656 2.79133155630367 9.452239583333325 C2.79133155630367 9.452239583333325 2.79133155630367 6.666666666666661 2.79133155630367 6.666666666666661 C2.79133155630367 2.9899999999999984 5.661609762688902 0 9.191059998634175 0 C12.720510234579448 0 15.59078844096468 2.9899999999999984 15.59078844096468 6.666666666666661 C15.59078844096468 6.666666666666661 15.59078844096468 9.452239583333325 15.59078844096468 9.452239583333325 C15.59078844096468 11.365572916666656 16.089967259466455 13.243333333333322 17.033927204710206 14.883333333333319 C17.033927204710206 14.883333333333319 18.382119997268347 17.22223958333332 18.382119997268347 17.22223958333332 C18.382119997268347 17.22223958333332 0 17.22223958333332 0 17.22223958333332 Z" style="stroke-width: 0; stroke-linecap: butt; stroke-linejoin: miter; fill: rgba(0, 0, 0, 0);" vector-effect="non-scaling-stroke"/></g></g></g></svg>